<svg viewBox="0 0 400 120" xmlns="http://www.w3.org/2000/svg">
  <defs>
    <!-- Gradient for the trajectory path -->
    <linearGradient id="trajGradient" x1="0%" y1="0%" x2="100%" y2="0%">
      <stop offset="0%" style="stop-color:#4A90E2;stop-opacity:1" />
      <stop offset="50%" style="stop-color:#7B68EE;stop-opacity:1" />
      <stop offset="100%" style="stop-color:#9B59B6;stop-opacity:1" />
    </linearGradient>
    
    <!-- Gradient for atoms -->
    <radialGradient id="atomGradient" cx="50%" cy="30%" r="70%">
      <stop offset="0%" style="stop-color:#FFD700;stop-opacity:1" />
      <stop offset="100%" style="stop-color:#FFA500;stop-opacity:1" />
    </radialGradient>
    
    <!-- Filter for drop shadow -->
    <filter id="dropShadow" x="-20%" y="-20%" width="140%" height="140%">
      <feDropShadow dx="2" dy="2" stdDeviation="2" flood-color="#00000040"/>
    </filter>
  </defs>
  
  <!-- Background circle -->
  <circle cx="60" cy="60" r="50" fill="#f8f9fa" stroke="#e9ecef" stroke-width="2"/>
  
  <!-- Trajectory path (wavy line representing molecular motion) -->
  <path d="M 15 45 Q 25 35, 35 45 T 55 45 T 75 45 T 95 45 T 105 45" 
        stroke="url(#trajGradient)" 
        stroke-width="3" 
        fill="none" 
        opacity="0.8"/>
  
  <path d="M 15 60 Q 25 50, 35 60 T 55 60 T 75 60 T 95 60 T 105 60" 
        stroke="url(#trajGradient)" 
        stroke-width="3" 
        fill="none" 
        opacity="0.6"/>
  
  <path d="M 15 75 Q 25 65, 35 75 T 55 75 T 75 75 T 95 75 T 105 75" 
        stroke="url(#trajGradient)" 
        stroke-width="3" 
        fill="none" 
        opacity="0.4"/>
  
  <!-- Atoms/molecules along trajectory -->
  <circle cx="35" cy="45" r="3" fill="url(#atomGradient)"/>
  <circle cx="55" cy="45" r="3" fill="url(#atomGradient)"/>
  <circle cx="75" cy="45" r="3" fill="url(#atomGradient)"/>
  <circle cx="95" cy="45" r="3" fill="url(#atomGradient)"/>
  
  <circle cx="35" cy="60" r="2.5" fill="#E74C3C"/>
  <circle cx="55" cy="60" r="2.5" fill="#E74C3C"/>
  <circle cx="75" cy="60" r="2.5" fill="#E74C3C"/>
  <circle cx="95" cy="60" r="2.5" fill="#E74C3C"/>
  
  <!-- Slicing lines (indicating the "slicing" functionality) -->
  <line x1="45" y1="20" x2="45" y2="100" 
        stroke="#2C3E50" 
        stroke-width="2" 
        stroke-dasharray="5,5" 
        opacity="0.7"/>
  
  <line x1="65" y1="20" x2="65" y2="100" 
        stroke="#2C3E50" 
        stroke-width="2" 
        stroke-dasharray="5,5" 
        opacity="0.7"/>
  
  <!-- Scissors icon (stylized) -->
  <g transform="translate(80,25)">
    <path d="M 0 0 L 8 8 M 8 0 L 0 8" 
          stroke="#34495E" 
          stroke-width="2" 
          stroke-linecap="round"/>
    <circle cx="0" cy="0" r="2" fill="#34495E"/>
    <circle cx="8" cy="8" r="2" fill="#34495E"/>
  </g>
  
  <!-- Title Text -->
  <text x="140" y="45" 
        font-family="'Segoe UI', Tahoma, Geneva, Verdana, sans-serif" 
        font-size="32" 
        font-weight="700" 
        fill="#2C3E50">
    Traj
  </text>
  
  <text x="220" y="45" 
        font-family="'Segoe UI', Tahoma, Geneva, Verdana, sans-serif" 
        font-size="32" 
        font-weight="700" 
        fill="#7B68EE">
    Slicer
  </text>
  
  <!-- Subtitle -->
  <text x="140" y="68" 
        font-family="'Segoe UI', Tahoma, Geneva, Verdana, sans-serif" 
        font-size="14" 
        font-weight="400" 
        fill="#7F8C8D">
    Molecular Dynamics Trajectory Tools
  </text>
  
  <!-- Version or tagline -->
  <text x="140" y="85" 
        font-family="'Segoe UI', Tahoma, Geneva, Verdana, sans-serif" 
        font-size="11" 
        font-weight="300" 
        fill="#95A5A6">
    Slice • Sample • Convert
  </text>
</svg>